<?xml version="1.0" standalone="no"?>
<!DOCTYPE svg PUBLIC "-//W3C//DTD SVG 20010904//EN"
 "http://www.w3.org/TR/2001/REC-SVG-20010904/DTD/svg10.dtd">
<svg version="1.0" xmlns="http://www.w3.org/2000/svg"
 width="512.000000pt" height="512.000000pt" viewBox="0 0 512.000000 512.000000"
 preserveAspectRatio="xMidYMid meet">

<g transform="translate(0.000000,512.000000) scale(0.100000,-0.100000)"
fill="#000000" stroke="none">
<path d="M2370 4854 c-123 -11 -279 -38 -403 -69 -783 -197 -1428 -793 -1680
-1553 -81 -243 -114 -423 -124 -677 -39 -1038 613 -1903 1652 -2194 492 -138
1056 -132 1545 16 813 246 1399 866 1554 1646 245 1229 -540 2459 -1764 2763
-74 18 -182 40 -240 49 -101 15 -447 27 -540 19z m-1530 -1924 c40 -21 269
-82 384 -101 78 -13 202 -23 351 -28 197 -7 238 -11 290 -29 262 -95 372 -376
233 -595 -55 -86 -171 -159 -296 -186 -130 -27 -330 -5 -461 51 -131 56 -294
206 -375 345 -77 131 -142 324 -164 487 -9 70 -4 78 38 56z m3474 -77 c-17
-109 -55 -242 -95 -340 -84 -201 -267 -397 -440 -471 -131 -56 -331 -78 -461
-51 -125 27 -241 100 -296 186 -139 219 -29 500 233 594 52 19 92 23 285 30
295 10 492 42 695 113 39 13 75 25 81 25 8 1 7 -24 -2 -86z"/>
</g>
</svg>
